<svg width="1280" height="720" viewBox="0 0 1280 720" fill="none" xmlns="http://www.w3.org/2000/svg">
<g clip-path="url(#clip0_202_2)">
<rect width="1280" height="720" fill="white"/>
<rect width="1280" height="720" fill="#E9F5F3"/>
<path d="M457.112 -38C457.112 -38 551.151 111.159 390.465 141.521C229.779 171.883 133.414 158.425 80.7965 300.028C28.1787 441.631 -160 405.028 -160 405.028" stroke="#EBCDBE" stroke-width="2"/>
<path d="M370.112 -139C370.112 -139 464.151 10.1588 303.465 40.5209C142.779 70.8829 46.4143 57.4249 -6.20354 199.028C-58.8213 340.631 -247 304.028 -247 304.028" stroke="#EBCDBE" stroke-width="2"/>
<path fill-rule="evenodd" clip-rule="evenodd" d="M197.955 565.457C197.956 563.427 196.702 562.507 194.61 562.063C193.01 561.723 191.487 561.71 190.668 562.886C190.494 563.134 190.292 563.558 190.153 563.985C189.982 564.512 189.914 565.005 189.984 565.4C190.24 566.854 190.866 567.538 192.909 567.807C194.035 567.955 195.27 567.972 196.048 567.658C196.939 567.298 197.954 566.531 197.955 565.457ZM254.986 570C257.125 570 258.542 570.639 258.963 572.625C259.186 573.676 258.353 574.637 257.556 575.174C256.86 575.643 255.649 575.883 254.517 575.972C252.462 576.134 251.708 575.596 251.155 574.227C251.004 573.854 250.968 573.358 251.026 572.807C251.074 572.36 251.183 571.904 251.301 571.625C251.858 570.304 253.35 570 254.986 570ZM255.954 600.5C255.428 597.852 253.656 597 250.983 597C248.937 597 247.072 597.406 246.376 599.166C246.229 599.539 246.092 600.147 246.033 600.743C245.96 601.477 246.005 602.139 246.193 602.635C246.885 604.461 247.828 605.178 250.396 604.963C251.811 604.844 253.325 604.525 254.195 603.899C255.191 603.182 256.232 601.901 255.954 600.5ZM223.98 601C227.188 601 229.314 602.064 229.945 605.375C230.279 607.126 229.03 608.728 227.834 609.623C226.79 610.406 224.973 610.805 223.275 610.954C220.193 611.223 219.062 610.326 218.232 608.044C218.006 607.424 217.952 606.597 218.04 605.678C218.11 604.934 218.275 604.173 218.451 603.708C219.286 601.507 221.525 601 223.98 601ZM251.018 635C247.273 635 244.791 633.723 244.053 629.75C243.71 627.9 245.09 626.88 246.377 625.929C246.552 625.8 246.724 625.672 246.891 625.544L246.956 625.494C248.172 624.557 249.893 623.23 251.841 623.056C255.439 622.733 256.76 623.809 257.729 626.547C257.993 627.292 258.056 628.284 257.954 629.386C257.871 630.279 257.679 631.192 257.473 631.751C256.498 634.391 253.884 635 251.018 635ZM237.976 660C242.792 660 245.984 658.297 246.932 653C247.373 650.533 245.599 649.174 243.944 647.905L243.943 647.905C243.719 647.733 243.497 647.563 243.283 647.392L243.199 647.325C241.636 646.076 239.423 644.307 236.918 644.074C232.292 643.643 230.594 645.078 229.348 648.729C229.009 649.722 228.928 651.046 229.059 652.515C229.166 653.706 229.412 654.923 229.677 655.668C230.931 659.188 234.292 660 237.976 660ZM203.053 633.75C203.791 637.723 206.273 639 210.018 639C212.884 639 215.498 638.391 216.473 635.751C216.679 635.192 216.871 634.279 216.954 633.386C217.056 632.284 216.993 631.292 216.729 630.547C215.76 627.809 214.439 626.733 210.841 627.056C208.893 627.23 207.172 628.557 205.956 629.494L205.891 629.544C205.724 629.672 205.552 629.8 205.377 629.929C204.09 630.88 202.71 631.9 203.053 633.75ZM185.963 613.625C185.542 611.639 184.125 611 181.986 611C180.35 611 178.858 611.304 178.301 612.625C178.183 612.904 178.074 613.36 178.026 613.807C177.968 614.358 178.004 614.854 178.155 615.227C178.708 616.596 179.462 617.134 181.517 616.972C182.649 616.883 183.86 616.643 184.556 616.174C185.353 615.637 186.186 614.676 185.963 613.625ZM283.986 600C286.125 600 287.542 600.639 287.963 602.625C288.186 603.676 287.353 604.637 286.556 605.174C285.86 605.643 284.649 605.883 283.517 605.972C281.462 606.134 280.708 605.596 280.155 604.227C280.004 603.854 279.968 603.358 280.026 602.807C280.074 602.36 280.183 601.904 280.301 601.625C280.858 600.304 282.35 600 283.986 600ZM193.983 589C196.656 589 198.428 589.852 198.954 592.5C199.233 593.901 198.191 595.182 197.195 595.899C196.325 596.525 194.811 596.844 193.396 596.963C190.828 597.178 189.885 596.461 189.193 594.635C189.005 594.139 188.96 593.477 189.033 592.743C189.092 592.147 189.229 591.538 189.376 591.166C190.072 589.406 191.937 589 193.983 589ZM228.954 573.5C228.428 570.852 226.656 570 223.983 570C221.937 570 220.072 570.406 219.376 572.166C219.229 572.538 219.092 573.147 219.033 573.743C218.96 574.477 219.005 575.139 219.193 575.635C219.885 577.461 220.828 578.178 223.396 577.963C224.811 577.844 226.325 577.525 227.195 576.899C228.191 576.182 229.232 574.901 228.954 573.5Z" fill="white"/>
<path d="M512.109 291.86C512.576 291.02 513.253 290.46 514.139 290.18C515.026 289.9 516.123 289.76 517.429 289.76C518.783 289.76 519.856 289.877 520.649 290.11C521.489 290.343 522.096 290.623 522.469 290.95C522.889 291.277 523.193 291.767 523.379 292.42C523.659 293.167 523.799 294.357 523.799 295.99V334.84C523.799 335.96 523.753 336.777 523.659 337.29C523.613 337.803 523.403 338.41 523.029 339.11C522.376 340.37 520.556 341 517.569 341C515.749 341 514.489 340.86 513.789 340.58C513.089 340.3 512.506 339.857 512.039 339.25C501.539 325.25 494.633 316.103 491.319 311.81V334.84C491.319 335.96 491.273 336.777 491.179 337.29C491.133 337.803 490.923 338.41 490.549 339.11C489.896 340.37 488.076 341 485.089 341C482.196 341 480.423 340.37 479.769 339.11C479.396 338.41 479.163 337.78 479.069 337.22C479.023 336.66 478.999 335.843 478.999 334.77V295.71C478.999 293.937 479.209 292.653 479.629 291.86C480.096 291.02 480.773 290.46 481.659 290.18C482.546 289.9 483.689 289.76 485.089 289.76C486.489 289.76 487.586 289.9 488.379 290.18C489.219 290.413 489.803 290.693 490.129 291.02C490.316 291.16 490.853 291.767 491.739 292.84C501.586 306.233 508.166 315.077 511.479 319.37V295.71C511.479 293.937 511.689 292.653 512.109 291.86ZM530.794 322.59C530.794 316.99 532.754 312.37 536.674 308.73C540.594 305.09 545.074 303.27 550.114 303.27C555.154 303.27 559.611 305.09 563.484 308.73C567.358 312.323 569.294 316.92 569.294 322.52C569.294 326.393 568.291 329.847 566.284 332.88C564.278 335.867 561.828 338.083 558.934 339.53C556.088 340.93 553.124 341.63 550.044 341.63C546.964 341.63 543.978 340.883 541.084 339.39C538.191 337.85 535.741 335.61 533.734 332.67C531.774 329.683 530.794 326.323 530.794 322.59ZM545.424 327.63C546.918 328.75 548.434 329.31 549.974 329.31C551.514 329.31 553.054 328.727 554.594 327.56C556.134 326.393 556.904 324.667 556.904 322.38C556.904 320.093 556.181 318.39 554.734 317.27C553.288 316.15 551.724 315.59 550.044 315.59C548.364 315.59 546.801 316.173 545.354 317.34C543.908 318.507 543.184 320.233 543.184 322.52C543.184 324.76 543.931 326.463 545.424 327.63ZM596.451 295.85C596.451 294.777 596.474 293.983 596.521 293.47C596.614 292.91 596.847 292.28 597.221 291.58C597.874 290.32 599.694 289.69 602.681 289.69C605.947 289.69 607.884 290.553 608.491 292.28C608.724 293.073 608.841 294.287 608.841 295.92V334.84C608.841 335.96 608.794 336.777 608.701 337.29C608.654 337.803 608.444 338.41 608.071 339.11C607.417 340.37 605.597 341 602.611 341C599.344 341 597.431 340.113 596.871 338.34C596.591 337.593 596.451 336.403 596.451 334.77V295.85ZM628.933 309.01C631.127 305.697 633.763 304.04 636.843 304.04C641.603 304.04 645.15 306.07 647.483 310.13C647.997 309.43 648.603 308.707 649.303 307.96C650.05 307.167 651.217 306.327 652.803 305.44C654.39 304.507 656.023 304.04 657.703 304.04C661.437 304.04 664.563 305.487 667.083 308.38C669.603 311.227 670.863 315.963 670.863 322.59V334.84C670.863 335.913 670.817 336.73 670.723 337.29C670.677 337.803 670.467 338.41 670.093 339.11C669.487 340.37 667.69 341 664.703 341C661.763 341 659.967 340.347 659.313 339.04C658.987 338.34 658.777 337.733 658.683 337.22C658.637 336.66 658.613 335.843 658.613 334.77V322.52C658.613 318.46 657.167 316.43 654.273 316.43C652.64 316.43 651.52 316.967 650.913 318.04C650.353 319.113 650.073 320.63 650.073 322.59V334.84C650.073 335.96 650.027 336.777 649.933 337.29C649.887 337.803 649.677 338.41 649.303 339.11C648.65 340.37 646.83 341 643.843 341C640.903 341 639.107 340.347 638.453 339.04C638.127 338.34 637.917 337.733 637.823 337.22C637.777 336.66 637.753 335.843 637.753 334.77V322.52C637.753 318.46 636.307 316.43 633.413 316.43C630.613 316.43 629.213 318.46 629.213 322.52V334.91C629.213 335.983 629.167 336.8 629.073 337.36C629.027 337.873 628.817 338.48 628.443 339.18C627.743 340.393 625.923 341 622.983 341C620.043 341 618.247 340.37 617.593 339.11C617.267 338.41 617.057 337.803 616.963 337.29C616.917 336.777 616.893 335.96 616.893 334.84V310.2C616.893 309.127 616.917 308.333 616.963 307.82C617.057 307.26 617.29 306.653 617.663 306C618.363 304.74 620.02 304.11 622.633 304.11C625.247 304.11 626.95 304.53 627.743 305.37C628.537 306.21 628.933 307.423 628.933 309.01ZM702.839 308.03C703.119 305.417 704.962 304.11 708.369 304.11C710.189 304.11 711.542 304.25 712.429 304.53C713.315 304.81 713.922 305.3 714.249 306C714.622 306.7 714.832 307.33 714.879 307.89C714.972 308.403 715.019 309.197 715.019 310.27V334.77C715.019 335.843 714.972 336.66 714.879 337.22C714.832 337.733 714.645 338.34 714.319 339.04C713.665 340.253 712.055 340.86 709.489 340.86C706.969 340.86 705.265 340.557 704.379 339.95C703.539 339.297 703.049 338.363 702.909 337.15C701.182 339.623 698.289 340.86 694.229 340.86C690.215 340.86 686.482 339.017 683.029 335.33C679.575 331.643 677.849 327.373 677.849 322.52C677.849 317.62 679.575 313.35 683.029 309.71C686.529 306.023 690.355 304.18 694.509 304.18C696.095 304.18 697.542 304.46 698.849 305.02C700.155 305.58 701.065 306.117 701.579 306.63C702.092 307.097 702.512 307.563 702.839 308.03ZM690.099 322.59C690.099 324.13 690.705 325.53 691.919 326.79C693.132 328.003 694.602 328.61 696.329 328.61C698.055 328.61 699.479 327.98 700.599 326.72C701.765 325.46 702.349 324.083 702.349 322.59C702.349 321.05 701.789 319.627 700.669 318.32C699.595 317.013 698.125 316.36 696.259 316.36C694.439 316.36 692.945 317.013 691.779 318.32C690.659 319.627 690.099 321.05 690.099 322.59ZM746.442 336.38C744.669 338.713 741.846 339.88 737.972 339.88C734.099 339.88 730.459 338.107 727.052 334.56C723.692 330.967 722.012 326.79 722.012 322.03C722.012 317.27 723.716 313.093 727.122 309.5C730.529 305.907 734.262 304.11 738.322 304.11C739.909 304.11 741.356 304.413 742.662 305.02C743.969 305.58 744.856 306.117 745.322 306.63C745.836 307.097 746.232 307.54 746.512 307.96C746.652 306.653 747.119 305.673 747.912 305.02C748.752 304.32 750.082 303.97 751.902 303.97C753.722 303.97 755.052 304.11 755.892 304.39C756.732 304.67 757.316 305.16 757.642 305.86C758.016 306.513 758.226 307.097 758.272 307.61C758.366 308.123 758.412 308.917 758.412 309.99V338.97C758.412 344.337 756.546 348.653 752.812 351.92C749.079 355.233 744.879 356.89 740.212 356.89C736.666 356.89 733.282 356.027 730.062 354.3C726.842 352.573 725.232 351.01 725.232 349.61C725.232 347.79 725.932 346.18 727.332 344.78C728.219 343.8 728.896 343.123 729.362 342.75C729.876 342.377 730.459 342.19 731.112 342.19C731.766 342.19 732.442 342.47 733.142 343.03C735.382 344.757 737.809 345.62 740.422 345.62C742.196 345.62 743.642 344.92 744.762 343.52C745.882 342.12 746.442 340.44 746.442 338.48V336.38ZM733.982 322.1C733.982 323.593 734.566 324.947 735.732 326.16C736.946 327.373 738.392 327.98 740.072 327.98C741.799 327.98 743.222 327.373 744.342 326.16C745.462 324.9 746.022 323.547 746.022 322.1C746.022 320.607 745.486 319.23 744.412 317.97C743.339 316.663 741.892 316.01 740.072 316.01C738.252 316.01 736.782 316.64 735.662 317.9C734.542 319.16 733.982 320.56 733.982 322.1ZM802.034 318.18C802.034 321.027 801.31 323.15 799.864 324.55C798.464 325.903 796.9 326.58 795.174 326.58H778.584C778.584 327.887 779.354 328.983 780.894 329.87C782.434 330.757 783.974 331.2 785.514 331.2C788.22 331.2 790.344 330.92 791.884 330.36L792.654 330.08C793.774 329.567 794.707 329.31 795.454 329.31C796.947 329.31 798.23 330.36 799.304 332.46C799.91 333.72 800.214 334.793 800.214 335.68C800.214 339.833 795.244 341.91 785.304 341.91C781.85 341.91 778.77 341.327 776.064 340.16C773.404 338.947 771.327 337.36 769.834 335.4C766.894 331.62 765.424 327.397 765.424 322.73C765.424 316.85 767.314 312.16 771.094 308.66C774.92 305.113 779.68 303.34 785.374 303.34C791.86 303.34 796.62 305.627 799.654 310.2C801.24 312.627 802.034 315.287 802.034 318.18ZM787.264 320.21C789.037 320.21 789.924 319.463 789.924 317.97C789.924 316.897 789.504 316.033 788.664 315.38C787.87 314.727 786.704 314.4 785.164 314.4C783.67 314.4 782.177 315.03 780.684 316.29C779.19 317.503 778.444 318.81 778.444 320.21H787.264ZM504.779 383.33L523.679 422.39C524.473 423.977 524.869 425.167 524.869 425.96C524.869 427.64 523.516 429.157 520.809 430.51C519.223 431.303 517.963 431.7 517.029 431.7C516.143 431.7 515.396 431.49 514.789 431.07C514.229 430.65 513.809 430.207 513.529 429.74C513.296 429.273 512.946 428.573 512.479 427.64L508.839 420.08H489.449L485.809 427.64C485.343 428.573 484.969 429.25 484.689 429.67C484.456 430.09 484.036 430.533 483.429 431C482.869 431.42 482.123 431.63 481.189 431.63C480.303 431.63 479.066 431.233 477.479 430.44C474.773 429.133 473.419 427.64 473.419 425.96C473.419 425.167 473.816 423.977 474.609 422.39L493.509 383.26C494.023 382.187 494.793 381.323 495.819 380.67C496.893 380.017 498.013 379.69 499.179 379.69C501.699 379.69 503.566 380.903 504.779 383.33ZM499.109 400.13L494.489 409.72H503.799L499.109 400.13ZM559.921 394.95C562.348 396.397 563.561 397.937 563.561 399.57C563.561 400.503 563.094 401.787 562.161 403.42L547.671 428.27C547.204 429.063 546.458 429.787 545.431 430.44C544.404 431.047 543.378 431.35 542.351 431.35C541.371 431.35 540.414 431.117 539.481 430.65C538.594 430.137 537.964 429.623 537.591 429.11L536.961 428.34L522.401 403.42C521.468 401.88 521.001 400.62 521.001 399.64C521.001 397.96 522.214 396.397 524.641 394.95C526.414 393.923 527.814 393.41 528.841 393.41C529.868 393.41 530.661 393.737 531.221 394.39C531.828 394.997 532.458 395.93 533.111 397.19L542.281 414.83L551.451 397.19C551.964 396.303 552.338 395.673 552.571 395.3C552.851 394.88 553.271 394.483 553.831 394.11C554.391 393.69 555.138 393.48 556.071 393.48C557.004 393.48 558.288 393.97 559.921 394.95ZM591.675 398.03C591.955 395.417 593.798 394.11 597.205 394.11C599.025 394.11 600.378 394.25 601.265 394.53C602.151 394.81 602.758 395.3 603.085 396C603.458 396.7 603.668 397.33 603.715 397.89C603.808 398.403 603.855 399.197 603.855 400.27V424.77C603.855 425.843 603.808 426.66 603.715 427.22C603.668 427.733 603.481 428.34 603.155 429.04C602.501 430.253 600.891 430.86 598.325 430.86C595.805 430.86 594.101 430.557 593.215 429.95C592.375 429.297 591.885 428.363 591.745 427.15C590.018 429.623 587.125 430.86 583.065 430.86C579.051 430.86 575.318 429.017 571.865 425.33C568.411 421.643 566.685 417.373 566.685 412.52C566.685 407.62 568.411 403.35 571.865 399.71C575.365 396.023 579.191 394.18 583.345 394.18C584.931 394.18 586.378 394.46 587.685 395.02C588.991 395.58 589.901 396.117 590.415 396.63C590.928 397.097 591.348 397.563 591.675 398.03ZM578.935 412.59C578.935 414.13 579.541 415.53 580.755 416.79C581.968 418.003 583.438 418.61 585.165 418.61C586.891 418.61 588.315 417.98 589.435 416.72C590.601 415.46 591.185 414.083 591.185 412.59C591.185 411.05 590.625 409.627 589.505 408.32C588.431 407.013 586.961 406.36 585.095 406.36C583.275 406.36 581.781 407.013 580.615 408.32C579.495 409.627 578.935 411.05 578.935 412.59ZM611.898 400.27C611.898 399.197 611.922 398.403 611.968 397.89C612.062 397.33 612.272 396.7 612.598 396C613.252 394.787 615.072 394.18 618.058 394.18C620.298 394.18 621.885 394.577 622.818 395.37C623.612 396.023 624.032 397.027 624.078 398.38C624.125 398.847 624.148 399.523 624.148 400.41V424.91C624.148 425.983 624.102 426.8 624.008 427.36C623.962 427.873 623.752 428.48 623.378 429.18C622.772 430.393 620.975 431 617.988 431C615.048 431 613.252 430.37 612.598 429.11C612.272 428.41 612.062 427.803 611.968 427.29C611.922 426.777 611.898 425.96 611.898 424.84V400.27ZM623.378 387.32C623.052 387.973 622.445 388.44 621.558 388.72C620.672 389 619.482 389.14 617.988 389.14C616.542 389.14 615.375 389 614.488 388.72C613.602 388.44 612.972 387.95 612.598 387.25C612.272 386.55 612.062 385.943 611.968 385.43C611.922 384.87 611.898 384.053 611.898 382.98C611.898 381.907 611.922 381.113 611.968 380.6C612.062 380.04 612.272 379.433 612.598 378.78C613.252 377.52 615.072 376.89 618.058 376.89C620.998 376.89 622.772 377.52 623.378 378.78C623.752 379.48 623.962 380.11 624.008 380.67C624.102 381.183 624.148 381.977 624.148 383.05C624.148 384.123 624.102 384.94 624.008 385.5C623.962 386.013 623.752 386.62 623.378 387.32ZM632.204 382.91C632.204 381.837 632.228 381.043 632.274 380.53C632.368 379.97 632.578 379.34 632.904 378.64C633.558 377.38 635.378 376.75 638.364 376.75C641.211 376.75 642.984 377.38 643.684 378.64C644.058 379.34 644.268 379.97 644.314 380.53C644.408 381.09 644.454 381.907 644.454 382.98V415.39C644.454 417.07 644.594 418.143 644.874 418.61C645.154 419.03 645.761 419.24 646.694 419.24C647.674 419.24 648.328 419.287 648.654 419.38C648.981 419.427 649.378 419.613 649.844 419.94C650.778 420.547 651.244 422.203 651.244 424.91C651.244 427.85 650.778 429.647 649.844 430.3C648.631 431.14 645.738 431.28 641.164 430.72C637.571 430.253 635.238 429.063 634.164 427.15C632.858 424.863 632.204 421.223 632.204 416.23V382.91ZM681.509 398.03C681.789 395.417 683.632 394.11 687.039 394.11C688.859 394.11 690.212 394.25 691.099 394.53C691.986 394.81 692.592 395.3 692.919 396C693.292 396.7 693.502 397.33 693.549 397.89C693.642 398.403 693.689 399.197 693.689 400.27V424.77C693.689 425.843 693.642 426.66 693.549 427.22C693.502 427.733 693.316 428.34 692.989 429.04C692.336 430.253 690.726 430.86 688.159 430.86C685.639 430.86 683.936 430.557 683.049 429.95C682.209 429.297 681.719 428.363 681.579 427.15C679.852 429.623 676.959 430.86 672.899 430.86C668.886 430.86 665.152 429.017 661.699 425.33C658.246 421.643 656.519 417.373 656.519 412.52C656.519 407.62 658.246 403.35 661.699 399.71C665.199 396.023 669.026 394.18 673.179 394.18C674.766 394.18 676.212 394.46 677.519 395.02C678.826 395.58 679.736 396.117 680.249 396.63C680.762 397.097 681.182 397.563 681.509 398.03ZM668.769 412.59C668.769 414.13 669.376 415.53 670.589 416.79C671.802 418.003 673.272 418.61 674.999 418.61C676.726 418.61 678.149 417.98 679.269 416.72C680.436 415.46 681.019 414.083 681.019 412.59C681.019 411.05 680.459 409.627 679.339 408.32C678.266 407.013 676.796 406.36 674.929 406.36C673.109 406.36 671.616 407.013 670.449 408.32C669.329 409.627 668.769 411.05 668.769 412.59ZM721.962 394.18C726.116 394.18 729.919 396.023 733.372 399.71C736.872 403.397 738.622 407.69 738.622 412.59C738.622 417.443 736.896 421.713 733.442 425.4C729.989 429.04 726.279 430.86 722.312 430.86C718.346 430.86 715.522 429.74 713.842 427.5C713.469 429.787 711.462 430.93 707.822 430.93C704.882 430.93 703.086 430.3 702.432 429.04C702.106 428.34 701.896 427.733 701.802 427.22C701.756 426.66 701.732 425.843 701.732 424.77V382.98C701.732 381.907 701.756 381.113 701.802 380.6C701.896 380.04 702.106 379.433 702.432 378.78C703.086 377.52 704.906 376.89 707.892 376.89C710.832 376.89 712.606 377.52 713.212 378.78C713.586 379.48 713.796 380.11 713.842 380.67C713.936 381.183 713.982 381.977 713.982 383.05V397.61C715.849 395.323 718.509 394.18 721.962 394.18ZM715.802 416.79C716.969 418.05 718.416 418.68 720.142 418.68C721.869 418.68 723.339 418.05 724.552 416.79C725.766 415.53 726.372 414.13 726.372 412.59C726.372 411.05 725.812 409.65 724.692 408.39C723.572 407.083 722.079 406.43 720.212 406.43C718.346 406.43 716.852 407.083 715.732 408.39C714.659 409.697 714.122 411.12 714.122 412.66C714.122 414.153 714.682 415.53 715.802 416.79ZM745.623 382.91C745.623 381.837 745.646 381.043 745.693 380.53C745.786 379.97 745.996 379.34 746.323 378.64C746.976 377.38 748.796 376.75 751.783 376.75C754.629 376.75 756.403 377.38 757.103 378.64C757.476 379.34 757.686 379.97 757.733 380.53C757.826 381.09 757.873 381.907 757.873 382.98V415.39C757.873 417.07 758.013 418.143 758.293 418.61C758.573 419.03 759.179 419.24 760.113 419.24C761.093 419.24 761.746 419.287 762.073 419.38C762.399 419.427 762.796 419.613 763.263 419.94C764.196 420.547 764.663 422.203 764.663 424.91C764.663 427.85 764.196 429.647 763.263 430.3C762.049 431.14 759.156 431.28 754.583 430.72C750.989 430.253 748.656 429.063 747.583 427.15C746.276 424.863 745.623 421.223 745.623 416.23V382.91ZM805.864 408.18C805.864 411.027 805.14 413.15 803.694 414.55C802.294 415.903 800.73 416.58 799.004 416.58H782.414C782.414 417.887 783.184 418.983 784.724 419.87C786.264 420.757 787.804 421.2 789.344 421.2C792.05 421.2 794.174 420.92 795.714 420.36L796.484 420.08C797.604 419.567 798.537 419.31 799.284 419.31C800.777 419.31 802.06 420.36 803.134 422.46C803.74 423.72 804.044 424.793 804.044 425.68C804.044 429.833 799.074 431.91 789.134 431.91C785.68 431.91 782.6 431.327 779.894 430.16C777.234 428.947 775.157 427.36 773.664 425.4C770.724 421.62 769.254 417.397 769.254 412.73C769.254 406.85 771.144 402.16 774.924 398.66C778.75 395.113 783.51 393.34 789.204 393.34C795.69 393.34 800.45 395.627 803.484 400.2C805.07 402.627 805.864 405.287 805.864 408.18ZM791.094 410.21C792.867 410.21 793.754 409.463 793.754 407.97C793.754 406.897 793.334 406.033 792.494 405.38C791.7 404.727 790.534 404.4 788.994 404.4C787.5 404.4 786.007 405.03 784.514 406.29C783.02 407.503 782.274 408.81 782.274 410.21H791.094Z" fill="#68554D"/>
</g>
<defs>
<clipPath id="clip0_202_2">
<rect width="1280" height="720" fill="white"/>
</clipPath>
</defs>
</svg>
